<svg width="433" height="70" viewBox="0 0 433 70" fill="none" xmlns="http://www.w3.org/2000/svg">
<path fill-rule="evenodd" clip-rule="evenodd" d="M100.633 19.9039C96.3343 23.3872 94.2545 28.7462 94.2545 35.847C94.2545 42.9475 96.3343 48.3063 100.633 51.9237C104.931 55.541 109.784 57.2828 115.469 57.2828C121.016 57.2828 126.007 55.541 130.167 51.9237C134.327 48.4404 136.407 43.0813 136.407 35.9808C136.407 28.7462 134.327 23.5212 130.167 19.9039C126.007 16.2866 121.154 14.5449 115.469 14.5449C109.784 14.5449 104.793 16.2866 100.633 19.9039ZM106.179 46.5649C104.377 44.2874 103.406 40.8038 103.406 35.847C103.406 31.0237 104.377 27.5405 106.179 25.3969C108.12 23.1193 110.2 21.6456 112.419 21.1097L112.419 21.1097C112.973 20.9757 113.528 20.8418 113.944 20.8418C114.36 20.7078 114.776 20.7078 115.33 20.7078H115.331C115.608 20.7078 115.85 20.7413 116.093 20.7748C116.336 20.8083 116.578 20.8418 116.856 20.8418C117.272 20.8418 117.827 20.9757 118.381 21.1097C120.6 21.6456 122.68 23.1193 124.482 25.3969C126.285 27.6745 127.255 31.2919 127.255 35.9808C127.255 40.67 126.285 44.2874 124.482 46.5649C122.68 48.8425 120.6 50.3161 118.381 50.8522C118.286 50.8752 118.194 50.8983 118.105 50.9207C117.679 51.0282 117.315 51.1201 116.856 51.1201C116.301 51.2539 115.885 51.2539 115.331 51.2539H115.331C115.123 51.2539 114.88 51.2204 114.637 51.187C114.395 51.1535 114.152 51.1201 113.944 51.1201C113.485 51.1201 113.121 51.0282 112.695 50.9208C112.606 50.8983 112.514 50.8752 112.419 50.8522C110.2 50.3161 108.12 48.8425 106.179 46.5649Z" fill="#333333"/>
<path d="M140.982 14.9468H152.352L167.327 41.3398L169.546 46.9668H169.685L169.546 39.598V14.9468H178.281V56.7469H166.912L151.936 29.416L149.718 24.7269H149.579L149.718 32.0954V56.7469H140.982V14.9468Z" fill="#333333"/>
<path d="M185.908 14.9468H194.643V49.646H211.837V56.7469H185.908V14.9468Z" fill="#333333"/>
<path d="M206.43 14.9468H216.552L225.426 29.684L226.812 32.4974H227.09L228.476 29.684L237.489 14.9468H246.779L231.111 39.7321V56.7469H222.375V39.7321L206.43 14.9468Z" fill="#333333"/>
<path fill-rule="evenodd" clip-rule="evenodd" d="M253.434 19.9039C249.136 23.3872 247.056 28.7462 247.056 35.847C247.056 42.9475 249.275 48.3063 253.434 51.9237C257.733 55.541 262.586 57.2828 268.271 57.2828C273.817 57.2828 278.809 55.541 282.969 51.9237C287.128 48.4404 289.208 43.0813 289.208 35.9808C289.208 28.7462 287.128 23.5212 282.969 19.9039C278.809 16.2866 273.956 14.5449 268.271 14.5449C262.586 14.5449 257.594 16.2866 253.434 19.9039ZM258.981 46.5649C257.178 44.2874 256.208 40.8038 256.208 35.847C256.208 31.0237 257.178 27.5405 258.981 25.3969C260.922 23.1193 263.002 21.6456 265.22 21.1097C265.775 20.9757 266.33 20.8418 266.746 20.8418C267.162 20.7078 267.577 20.7078 268.132 20.7078H268.132C268.41 20.7078 268.652 20.7413 268.895 20.7748C269.137 20.8083 269.38 20.8418 269.657 20.8418C270.073 20.8418 270.627 20.9755 271.182 21.1094L271.183 21.1097C273.401 21.6456 275.481 23.1193 277.284 25.3969C279.086 27.6745 280.057 31.2919 280.057 35.9808C280.057 40.67 279.086 44.2874 277.284 46.5649C275.481 48.8425 273.401 50.3161 271.183 50.8522C271.087 50.8753 270.995 50.8984 270.906 50.9209C270.48 51.0283 270.116 51.1201 269.657 51.1201C269.103 51.2539 268.687 51.2539 268.132 51.2539H268.132C267.924 51.2539 267.682 51.2204 267.439 51.187C267.196 51.1535 266.954 51.1201 266.746 51.1201C266.331 51.1201 265.778 50.9867 265.225 50.8533L265.22 50.8522C262.863 50.3161 260.922 48.8425 258.981 46.5649Z" fill="#333333"/>
<path d="M293.923 14.9468H318.049V22.0474H302.658V32.0954H317.355V39.196H302.658V56.7469H293.923V14.9468Z" fill="#333333"/>
<path d="M323.181 14.9468H347.307V22.0474H331.915V32.0954H346.613V39.196H331.915V56.7469H323.181V14.9468Z" fill="#333333"/>
<path d="M352.436 56.7469V14.9468H361.173V56.7469H352.436Z" fill="#333333"/>
<path d="M400.624 15.8843V23.1189C399.099 22.583 397.573 22.1811 395.91 21.9131C394.247 21.6452 392.444 21.5112 390.501 21.5112C385.927 21.5112 382.461 22.851 379.964 25.6644C377.469 28.3439 376.221 31.8272 376.221 35.9803C376.221 39.9997 377.329 43.3491 379.687 46.0287C382.044 48.7079 385.372 50.1818 389.67 50.1818C391.195 50.1818 392.721 50.0477 394.524 49.9139C396.324 49.6457 398.127 49.244 400.07 48.44L400.624 55.5406C400.347 55.6747 399.93 55.8088 399.516 55.9426C398.961 56.0767 398.404 56.2105 397.713 56.3446C396.604 56.6125 395.216 56.7466 393.553 57.0145C391.89 57.1483 390.224 57.2824 388.421 57.2824C388.144 57.2824 387.867 57.2824 387.73 57.2824C387.453 57.2824 387.175 57.2824 387.035 57.2824C382.044 57.0145 377.469 55.1389 373.309 51.9233C369.149 48.5741 367.069 43.3491 367.069 36.3823C367.069 29.5497 369.149 24.1907 373.169 20.4394C377.189 16.6881 382.738 14.8125 389.533 14.8125C391.333 14.8125 392.998 14.8125 394.384 14.9464C395.91 15.0804 397.296 15.3484 398.821 15.6163C399.099 15.7503 399.516 15.7503 399.793 15.8843C399.93 15.7503 400.207 15.8843 400.624 15.8843Z" fill="#333333"/>
<path d="M406.08 14.9468H432.009V21.5115H414.955V31.9616H430.346V38.5264H414.955V50.1821H432.009V56.7469H406.08V14.9468Z" fill="#333333"/>
<path fill-rule="evenodd" clip-rule="evenodd" d="M33.3143 69.1577L2.00187 55.01C-0.665498 53.7748 -0.665498 51.8661 2.00187 50.7431L12.9033 45.8027L33.1986 55.01C35.8658 56.245 40.1569 56.245 42.7081 55.01L63.0033 45.8027L73.9049 50.7431C76.5721 51.9784 76.5721 53.8871 73.9049 55.01L42.5921 69.1577C40.1569 70.2807 35.8658 70.2807 33.3143 69.1577Z" fill="#FF6F3D"/>
<path fill-rule="evenodd" clip-rule="evenodd" d="M33.3143 51.0822L2.00187 36.9345C-0.665498 35.6993 -0.665498 33.7906 2.00187 32.6676L12.6713 27.8394L33.3143 37.1591C35.9818 38.3941 40.2726 38.3941 42.8241 37.1591L63.4674 27.8394L74.1366 32.6676C76.8042 33.9028 76.8042 35.8116 74.1366 36.9345L42.8241 51.0822C40.1569 52.3175 35.8658 52.3175 33.3143 51.0822Z" fill="#95C038"/>
<path fill-rule="evenodd" clip-rule="evenodd" d="M33.3131 33.4888L2.00052 19.341C-0.666841 18.1058 -0.666841 16.197 2.00052 15.0742L33.3131 0.926346C35.9803 -0.308782 40.2714 -0.308782 42.8229 0.926346L74.1354 15.0742C76.8027 16.3093 76.8027 18.2181 74.1354 19.341L42.8229 33.4888C40.1554 34.6117 35.8646 34.6117 33.3131 33.4888Z" fill="#5DC0E8"/>
</svg>
