<svg width="12" height="12" viewBox="0 0 12 12" fill="none" xmlns="http://www.w3.org/2000/svg">
<path fill-rule="evenodd" clip-rule="evenodd" d="M5.25057 11.5035L0.315308 9.31331C-0.105103 9.12211 -0.105103 8.8266 0.315308 8.65277L2.03351 7.88794L5.23229 9.31331C5.6527 9.50452 6.32902 9.50452 6.73115 9.31331L9.92993 7.88794L11.6481 8.65277C12.0685 8.84398 12.0685 9.13949 11.6481 9.31331L6.71287 11.5035C6.32902 11.6773 5.6527 11.6773 5.25057 11.5035Z" fill="#FF6F3D"/>
<path fill-rule="evenodd" clip-rule="evenodd" d="M5.25057 8.80939L0.315308 6.61917C-0.105103 6.42797 -0.105103 6.13246 0.315308 5.95863L1.99695 5.21118L5.25057 6.65394C5.67098 6.84515 6.3473 6.84515 6.74943 6.65394L10.003 5.21118L11.6847 5.95863C12.1051 6.14984 12.1051 6.44535 11.6847 6.61917L6.74943 8.80939C6.32902 9.00059 5.6527 9.00059 5.25057 8.80939Z" fill="#95C038"/>
<path fill-rule="evenodd" clip-rule="evenodd" d="M5.25057 6.18437L0.315308 3.99416C-0.105103 3.80295 -0.105103 3.50744 0.315308 3.33362L5.25057 1.14341C5.67098 0.952198 6.3473 0.952198 6.74943 1.14341L11.6847 3.33362C12.1051 3.52483 12.1051 3.82033 11.6847 3.99416L6.74943 6.18437C6.32902 6.35819 5.6527 6.35819 5.25057 6.18437Z" fill="#5DC0E8"/>
</svg>
