<svg width="64" height="64" viewBox="0 0 64 64" fill="none" xmlns="http://www.w3.org/2000/svg">
<path d="M7 1L38 1.00014L57 20L57 62.9999H7V1Z" fill="white"/>
<path fill-rule="evenodd" clip-rule="evenodd" d="M7 63H57V20L38 1H7V63ZM38 0H6V64H58V20L38 0Z" fill="#BFBFBF"/>
<path d="M16.0293 52.4321V46.2686H16.8735C17.6395 46.2686 18.1536 46.2983 18.416 46.3574C18.7673 46.4336 19.0571 46.5796 19.2856 46.7954C19.5142 47.0112 19.6919 47.3115 19.8188 47.6968C19.9458 48.082 20.0093 48.6343 20.0093 49.3535C20.0093 50.0728 19.9458 50.6421 19.8188 51.061C19.6919 51.4756 19.5269 51.7739 19.3237 51.9561C19.1248 52.1382 18.873 52.2671 18.5684 52.3433C18.3356 52.4023 17.9569 52.4321 17.4321 52.4321H16.0293Z" fill="#1E7AAA"/>
<path d="M25.8364 51.7402C25.3498 51.1943 25.1064 50.3945 25.1064 49.3408C25.1064 48.27 25.3434 47.4702 25.8174 46.9414C26.2913 46.4082 26.9155 46.1416 27.6899 46.1416C28.4644 46.1416 29.0843 46.4038 29.5498 46.9287C30.0195 47.4536 30.2544 48.249 30.2544 49.3154C30.2544 50.3945 30.0132 51.2051 29.5308 51.7466C29.0526 52.2842 28.439 52.5527 27.6899 52.5527C26.9409 52.5527 26.3231 52.2817 25.8364 51.7402Z" fill="#1E7AAA"/>
<path fill-rule="evenodd" clip-rule="evenodd" d="M14 40C12.8954 40 12 40.8955 12 42V56C12 57.1045 12.8954 58 14 58H50C51.1046 58 52 57.1045 52 56V42C52 40.8955 51.1046 40 50 40H14ZM17.5845 44.6943H14.1504V54H17.686C18.3801 54 18.9344 53.9346 19.3491 53.8032C19.9035 53.6255 20.3436 53.3779 20.6694 53.0605C21.1011 52.6416 21.4333 52.0938 21.666 51.4165C21.8564 50.8623 21.9517 50.2021 21.9517 49.436C21.9517 48.5645 21.8501 47.832 21.647 47.2397C21.4438 46.6431 21.1476 46.1396 20.7583 45.729C20.369 45.3184 19.9014 45.0327 19.3555 44.8721C18.9492 44.7534 18.3589 44.6943 17.5845 44.6943ZM23.5957 47.0176C23.3122 47.6606 23.1704 48.4565 23.1704 49.4043C23.1704 50.8853 23.5788 52.0493 24.3955 52.8955C25.2122 53.7378 26.3125 54.1587 27.6963 54.1587C29.0632 54.1587 30.155 53.7354 30.9717 52.8892C31.7884 52.0386 32.1968 50.8623 32.1968 49.3599C32.1968 47.8447 31.7842 46.6621 30.959 45.8115C30.138 44.9609 29.042 44.5356 27.6709 44.5356C26.9134 44.5356 26.2448 44.6582 25.665 44.9038C25.2292 45.0859 24.8271 45.3652 24.459 45.7417C24.095 46.1182 23.8073 46.5435 23.5957 47.0176ZM41.4453 51.1562L39.6235 50.5786C39.467 51.2598 39.2088 51.7593 38.8491 52.0767C38.4894 52.394 38.0599 52.5527 37.5605 52.5527C36.8835 52.5527 36.3333 52.3032 35.9102 51.8037C35.487 51.3042 35.2754 50.4663 35.2754 49.29C35.2754 48.1812 35.4891 47.3794 35.9165 46.8843C36.3481 46.3892 36.9089 46.1416 37.5986 46.1416C38.098 46.1416 38.5212 46.2812 38.8682 46.5605C39.2194 46.8398 39.45 47.2207 39.5601 47.7031L41.4199 47.2588C41.2083 46.5142 40.8909 45.9429 40.4678 45.5449C39.7568 44.8721 38.8322 44.5356 37.6938 44.5356C36.3905 44.5356 35.3389 44.9653 34.5391 45.8242C33.7393 46.6792 33.3394 47.8809 33.3394 49.4297C33.3394 50.894 33.7371 52.0493 34.5327 52.8955C35.3283 53.7378 36.3439 54.1587 37.5796 54.1587C38.5783 54.1587 39.4014 53.9131 40.0488 53.4224C40.7005 52.9272 41.166 52.1719 41.4453 51.1562ZM45.2983 49.144L42.1182 54H44.3716L46.4409 50.7817L48.5039 54H50.77L47.5898 49.2139L50.4844 44.6943H48.3071L46.479 47.6841L44.6128 44.6943H42.4165L45.2983 49.144Z" fill="#1E7AAA"/>
<path d="M38 8H12V12H38V8Z" fill="#C4C4C4"/>
<path d="M38 16H12V20H52V19H38V16Z" fill="#C4C4C4"/>
<path d="M52 24H12V28H52V24Z" fill="#C4C4C4"/>
<path d="M12 32H40V36H12V32Z" fill="#C4C4C4"/>
<path opacity="0.3" d="M37 20.0002V1.00019L38 1V19.0002H57L58 19.9998L37 20.0002Z" fill="black"/>
</svg>
