<svg width="64" height="64" viewBox="0 0 64 64" fill="none" xmlns="http://www.w3.org/2000/svg">
<g clip-path="url(#clip0_374_1299)">
<path d="M7 1L38 1.00014L57 20L57 62.9999H7V1Z" fill="white"/>
<path fill-rule="evenodd" clip-rule="evenodd" d="M7 63H57V20L38 1H7V63ZM38 0H6V64H58V20L38 0Z" fill="#BFBFBF"/>
<path d="M17.8447 48.9092V46.2686H18.7524C19.4295 46.2686 19.8802 46.2898 20.1045 46.332C20.4092 46.387 20.661 46.5247 20.8599 46.7446C21.0588 46.9646 21.1582 47.2439 21.1582 47.5825C21.1582 47.8577 21.0863 48.0989 20.9424 48.3062C20.8027 48.5134 20.6081 48.6658 20.3584 48.7632C20.1087 48.8606 19.6136 48.9092 18.873 48.9092H17.8447Z" fill="#F36700"/>
<path d="M26.5156 48.9092V46.2686H27.4233C28.1004 46.2686 28.5511 46.2898 28.7754 46.332C29.0801 46.387 29.3319 46.5247 29.5308 46.7446C29.7297 46.9646 29.8291 47.2439 29.8291 47.5825C29.8291 47.8577 29.7572 48.0989 29.6133 48.3062C29.4736 48.5134 29.279 48.6658 29.0293 48.7632C28.7796 48.8606 28.2845 48.9092 27.5439 48.9092H26.5156Z" fill="#F36700"/>
<path fill-rule="evenodd" clip-rule="evenodd" d="M14 40C12.8954 40 12 40.8955 12 42V56C12 57.1045 12.8954 58 14 58H50C51.1046 58 52 57.1045 52 56V42C52 40.8955 51.1046 40 50 40H14ZM15.9658 44.6943V54H17.8447V50.4897H19.0698C19.9204 50.4897 20.57 50.4453 21.0186 50.3564C21.3486 50.2844 21.6724 50.1384 21.9897 49.9185C22.3114 49.6941 22.5759 49.3875 22.7832 48.998C22.9906 48.6086 23.0942 48.1284 23.0942 47.5571C23.0942 46.8167 22.9144 46.2136 22.5547 45.748C22.195 45.2783 21.7485 44.9736 21.2153 44.834C20.8683 44.741 20.1235 44.6943 18.981 44.6943H15.9658ZM24.6367 44.6943V54H26.5156V50.4897H27.7407C28.5913 50.4897 29.2409 50.4453 29.6895 50.3564C30.0195 50.2844 30.3433 50.1384 30.6606 49.9185C30.9823 49.6941 31.2467 49.3875 31.4541 48.998C31.6615 48.6086 31.7651 48.1284 31.7651 47.5571C31.7651 46.8167 31.5853 46.2136 31.2256 45.748C30.8659 45.2783 30.4194 44.9736 29.8862 44.834C29.5392 44.741 28.7944 44.6943 27.6519 44.6943H24.6367ZM35.4023 54V46.2686H32.6411V44.6943H40.0361V46.2686H37.2812V54H35.4023ZM43.4893 49.144L40.3091 54H42.5625L44.6318 50.7817L46.6948 54H48.9609L45.7808 49.2139L48.6753 44.6943H46.498L44.6699 47.6841L42.8037 44.6943H40.6074L43.4893 49.144Z" fill="#F36700"/>
<path d="M12 8V36H52V19H50V34H14V10H38V8H12Z" fill="#BFBFBF"/>
<path d="M38 14H32V12H24V16H38V14Z" fill="#BFBFBF"/>
<path d="M20 12H16V16H20V12Z" fill="#BFBFBF"/>
<path d="M34 20V22H30V24H24V20H34Z" fill="#BFBFBF"/>
<path d="M20 28H16V32H20V28Z" fill="#BFBFBF"/>
<path d="M24 28H30V30H46V32H24V28Z" fill="#BFBFBF"/>
<path d="M20 20H16V24H20V20Z" fill="#BFBFBF"/>
<path opacity="0.3" d="M37 20.0002V1.00019L38 1V19.0002H57L58 19.9998L37 20.0002Z" fill="black"/>
</g>
<defs>
<clipPath id="clip0_374_1299">
<rect width="64" height="64" fill="white"/>
</clipPath>
</defs>
</svg>
