<svg width="64" height="64" viewBox="0 0 64 64" fill="none" xmlns="http://www.w3.org/2000/svg">
<g clip-path="url(#clip0_374_1311)">
<path d="M7 1L38 1.00014L57 20L57 62.9999H7V1Z" fill="white"/>
<path fill-rule="evenodd" clip-rule="evenodd" d="M7 63H57V20L38 1H7V63ZM38 0H6V64H58V20L38 0Z" fill="#BFBFBF"/>
<path fill-rule="evenodd" clip-rule="evenodd" d="M14 40C12.8954 40 12 40.8955 12 42V56C12 57.1045 12.8954 58 14 58H50C51.1046 58 52 57.1045 52 56V42C52 40.8955 51.1046 40 50 40H14ZM32.1079 50.9722L33.936 50.7944C34.0461 51.408 34.2682 51.8586 34.6025 52.1465C34.9411 52.4343 35.396 52.5781 35.9673 52.5781C36.5724 52.5781 37.0273 52.4512 37.332 52.1973C37.6409 51.9392 37.7954 51.6387 37.7954 51.2959C37.7954 51.0759 37.7298 50.8896 37.5986 50.7373C37.4717 50.5808 37.2474 50.4453 36.9258 50.3311C36.7057 50.2549 36.2043 50.1194 35.4214 49.9248C34.4142 49.675 33.7075 49.3684 33.3013 49.0044C32.73 48.4924 32.4443 47.8682 32.4443 47.1318C32.4443 46.658 32.5776 46.2156 32.8442 45.8052C33.1151 45.3904 33.5023 45.0752 34.0059 44.8594C34.5137 44.6436 35.1252 44.5356 35.8403 44.5356C37.0083 44.5356 37.8864 44.7917 38.4746 45.3037C39.0671 45.8157 39.3781 46.4993 39.4077 47.354L37.5288 47.4365C37.4484 46.9583 37.2749 46.6155 37.0083 46.4082C36.7459 46.1965 36.3503 46.0908 35.8213 46.0908C35.2754 46.0908 34.848 46.2029 34.5391 46.4272C34.3402 46.571 34.2407 46.7637 34.2407 47.0049C34.2407 47.2249 34.3338 47.4133 34.52 47.5698C34.757 47.7688 35.3325 47.9761 36.2466 48.1919C37.1606 48.4077 37.8356 48.6321 38.2715 48.8647C38.7116 49.0933 39.0544 49.4084 39.2998 49.8105C39.5495 50.2083 39.6743 50.7014 39.6743 51.2896C39.6743 51.8228 39.5262 52.322 39.23 52.7876C38.9338 53.2532 38.5148 53.6001 37.9731 53.8286C37.4315 54.053 36.7565 54.165 35.9482 54.165C34.7718 54.165 33.8683 53.8943 33.2378 53.3525C32.6073 52.8066 32.2306 52.0132 32.1079 50.9722ZM18.2002 49.144L15.02 54H17.2734L19.3428 50.7817L21.4058 54H23.6719L20.4917 49.2139L23.3862 44.6943H21.209L19.3809 47.6841L17.5146 44.6943H15.3184L18.2002 49.144ZM24.6875 44.7705V54H31.2383V52.4321H26.5664V44.7705H24.6875ZM43.4893 49.144L40.3091 54H42.5625L44.6318 50.7817L46.6948 54H48.9609L45.7808 49.2139L48.6753 44.6943H46.498L44.6699 47.6841L42.8037 44.6943H40.6074L43.4893 49.144Z" fill="#6AAA1E"/>
<path fill-rule="evenodd" clip-rule="evenodd" d="M12 36H52V19H50H40H38V18H26V12H38L37.8383 10H12V36ZM40 20V26H50V20H40ZM38 26V20H26V26H38ZM24 12V18H14V12H24ZM14 20H24V26H14V20ZM14 28H24V34H14V28ZM38 28H26V34H38V28ZM40 34V28H50V34H40Z" fill="#BFBFBF"/>
<path opacity="0.3" d="M37 20.0002V1.00019L38 1V19.0002H57L58 19.9998L37 20.0002Z" fill="black"/>
</g>
<defs>
<clipPath id="clip0_374_1311">
<rect width="64" height="64" fill="white"/>
</clipPath>
</defs>
</svg>
