<svg width="13" height="13" viewBox="0 0 13 13" fill="none" xmlns="http://www.w3.org/2000/svg">
<path fill-rule="evenodd" clip-rule="evenodd" d="M5.68812 12.8529L0.341584 10.3813C-0.113861 10.1656 -0.113861 9.83208 0.341584 9.63593L2.20297 8.77283L5.66832 10.3813C6.12376 10.5971 6.85644 10.5971 7.29208 10.3813L10.7574 8.77283L12.6188 9.63593C13.0743 9.8517 13.0743 10.1852 12.6188 10.3813L7.27228 12.8529C6.85644 13.0491 6.12376 13.0491 5.68812 12.8529Z" fill="white" fill-opacity="0.5"/>
<path fill-rule="evenodd" clip-rule="evenodd" d="M5.68812 9.81244L0.341584 7.34084C-0.113861 7.12506 -0.113861 6.79159 0.341584 6.59544L2.16337 5.75195L5.68812 7.38007C6.14356 7.59584 6.87624 7.59584 7.31188 7.38007L10.8366 5.75195L12.6584 6.59544C13.1139 6.81121 13.1139 7.14468 12.6584 7.34084L7.31188 9.81244C6.85644 10.0282 6.12376 10.0282 5.68812 9.81244Z" fill="white" fill-opacity="0.75"/>
<path fill-rule="evenodd" clip-rule="evenodd" d="M5.68812 6.85043L0.341584 4.37883C-0.113861 4.16306 -0.113861 3.82959 0.341584 3.63343L5.68812 1.16183C6.14356 0.946056 6.87624 0.946056 7.31188 1.16183L12.6584 3.63343C13.1139 3.8492 13.1139 4.18267 12.6584 4.37883L7.31188 6.85043C6.85644 7.04659 6.12376 7.04659 5.68812 6.85043Z" fill="white"/>
</svg>
